<?xml version="1.0" encoding="UTF-8"?>
<svg id="Capa_2" data-name="Capa 2" xmlns="http://www.w3.org/2000/svg" viewBox="0 0 2643.03 505.15">
  <defs>
    <style>
      .cls-1, .cls-2 {
        fill: #01216c;
      }

      .cls-3 {
        fill: #333;
      }

      .cls-4 {
        fill: #05a904;
      }

      .cls-4, .cls-5, .cls-6, .cls-2 {
        fill-rule: evenodd;
      }

      .cls-5 {
        fill: #f0bb32;
      }

      .cls-6 {
        fill: #fb9e03;
      }
    </style>
  </defs>
  <g id="Capa_1-2" data-name="Capa 1">
    <g>
      <path class="cls-5" d="M469.27,185.21c24.97-10.36,48.9-22.67,72.3-35.62-2.37-2.46-4.6-4.79-7.1-7.12,13.93-7.51,26.82-15.41,38.38-23.31l14.72,.65c15.77-11.14,28.66-23.31,41.93-36.52l-12.75-.13c6.57-6.86,11.96-13.6,15.9-20.07l13.93-3.24c5.13-8.55,8.54-17.48,10.12-27.07-5.52,1.42-11.04,2.85-16.56,4.27-.39-2.72-1.05-5.18-2.23-7.51-3.42-6.86-10.25-12.04-19.98-15.54,3.94,2.59,6.84,5.7,8.68,9.45,1.31,2.72,1.97,5.83,2.1,9.07v.13c0,.39,0,.78-.13,1.3-.66,19.17-23.4,44.81-59.94,69.68-.39,.26-.79,.65-1.31,.91-15.12,10.23-32.73,20.46-52.05,29.92l-.39,.26c-3.81,1.81-7.76,3.76-11.7,5.57h-.13c-5.78,2.72-11.7,5.31-17.61,7.77-65.33,27.46-127.77,38.99-164.05,32.9-.92-.26-1.97-.39-2.89-.65h0l2.89,.65c-.92-.26-1.97-.39-2.89-.65v28.24c8.28-.13,17.35-.78,26.95-1.94l-13.01,18.52c24.58-3.37,48.24-8.94,71.64-16.19l10.51-16.97c15.51-4.53,31.55-9.97,47.98-16.19,2.24,3.11,4.47,6.35,6.7,9.45h0Zm-150.77-76.93v-13.34c7.36-4.79,14.85-9.33,22.48-13.99l7.76,.13c13.01-7.51,27.08-14.89,41.93-21.89-29.71,15.67-54.55,32.77-72.16,49.09h0Zm0,72.01c-1.05-.13-2.1-.39-3.02-.65-11.83-2.98-20.11-8.16-23.79-15.67-6.97-14.38,3.81-34.45,26.82-55.69v-13.34c-6.44,4.14-12.62,8.42-18.8,12.82,2.63,.13,5.39,.26,8.02,.26-8.15,6.09-15.38,12.04-21.82,18l-12.49,3.24c-9.46,8.68-17.75,18-25.5,27.85l14.33-3.37c-1.45,2.2-2.5,4.4-3.55,6.48-1.58,2.98-2.89,6.22-3.81,9.32-5.92,2.59-11.83,5.18-17.88,7.77-2.89,8.16-3.81,15.67-1.18,24.09l22.61-9.97c2.76,3.37,5.78,5.83,9.6,7.9,1.05,.52,2.1,1.17,3.29,1.68l-22.74,15.54c10.65,6.48,22.87,8.94,35.62,10.1,8.68-6.09,17.35-12.17,26.03-18.13,2.63,.13,5.39,.13,8.28,0v-28.24c-1.05-.13-2.1-.39-3.02-.65l3.02,.65h0Z"/>
      <path class="cls-6" d="M640.16,37.04c-.39-2.72-1.05-5.18-2.23-7.51-3.42-6.86-10.25-12.04-19.98-15.54,3.94,2.59,6.84,5.7,8.68,9.45,1.31,2.72,1.97,5.83,2.1,9.07v.13c0,.39,0,.78-.13,1.3-.66,19.17-23.4,44.81-59.94,69.68-.39,.26-.79,.65-1.31,.91-15.12,10.23-32.73,20.46-52.05,29.92l-.39,.26c-3.81,1.81-7.76,3.76-11.7,5.57h-.13c-5.78,2.72-11.7,5.31-17.61,7.77-65.33,27.46-127.77,38.99-164.05,32.9-.92-.26-1.97-.39-2.89-.65-1.05-.13-2.1-.39-3.02-.65-11.83-2.98-20.11-8.16-23.79-15.67-6.97-14.38,3.81-34.45,26.82-55.69,17.61-16.32,42.46-33.42,72.16-49.09-14.85,6.99-28.92,14.38-41.93,21.89l-7.76-.13c-7.62,4.66-15.12,9.2-22.48,13.99-6.44,4.14-12.62,8.42-18.8,12.82,2.63,.13,5.39,.26,8.02,.26-8.15,6.09-15.38,12.04-21.82,18l-12.49,3.24c-9.46,8.68-17.75,18-25.5,27.85l14.33-3.37c-1.45,2.2-2.5,4.4-3.55,6.48-1.58,2.98-2.89,6.22-3.81,9.32-5.92,2.59-11.83,5.18-17.88,7.77-2.89,8.16-3.81,15.67-1.18,24.09l22.61-9.97c2.76,3.37,5.78,5.83,9.6,7.9,1.05,.52,2.1,1.17,3.29,1.68l-22.74,15.54c10.65,6.48,22.87,8.94,35.62,10.1,8.68-6.09,17.35-12.17,26.03-18.13,2.63,.13,5.39,.13,8.28,0,8.28-.13,17.35-.78,26.95-1.94l-13.01,18.52c24.58-3.37,48.24-8.94,71.64-16.19l10.51-16.97c15.51-4.53,31.55-9.97,47.98-16.19,2.24,3.11,4.47,6.35,6.7,9.45,24.97-10.36,48.9-22.67,72.3-35.62-2.37-2.46-4.6-4.79-7.1-7.12,13.93-7.51,26.82-15.41,38.38-23.31l14.72,.65c15.77-11.14,28.66-23.31,41.93-36.52l-12.75-.13c6.57-6.86,11.96-13.6,15.91-20.07l13.93-3.24c5.13-8.55,8.54-17.48,10.12-27.07-5.52,1.42-11.04,2.85-16.56,4.27Z"/>
      <path class="cls-2" d="M358.72,61.52C198.49,130.94,89.12,230.93,114.23,284.81c25.11,53.75,175.48,41.06,335.46-28.49,160.1-69.42,269.6-169.41,244.5-223.16-9.73-20.85-38.38-31.73-79-33.16,26.03,2.46,44.17,10.49,51,24.61,20.51,42.09-68.62,121.75-198.88,177.83-130.13,56.08-252.25,67.48-272.76,25.26-20.51-42.09,68.62-121.75,198.88-177.83,25.63-11.14,51-20.46,75.32-27.98-35.1,9.97-72.3,23.18-110.02,39.63h0Z"/>
      <polygon class="cls-4" points="430.3 45.85 431.48 46.49 432.14 46.36 432.67 46.11 433.46 45.98 434.11 45.2 434.77 44.42 435.56 43.64 436.08 42.87 436.61 43.13 437.14 43.39 437.79 43.64 438.32 44.03 439.11 44.03 440.29 43.77 441.21 43.77 442.13 43.64 442.79 43.77 443.31 44.03 443.84 44.16 444.37 44.16 445.29 44.81 445.94 45.33 446.73 45.98 447.65 46.62 448.18 46.88 448.7 47.01 449.23 47.14 449.89 47.4 450.28 47.79 450.81 48.18 451.33 48.57 451.86 49.08 452.78 49.08 453.57 49.08 454.36 48.96 455.28 48.96 455.93 48.83 456.59 48.57 457.51 48.44 458.17 48.31 458.96 48.05 460.01 47.79 460.8 47.53 461.72 47.14 462.51 47.79 463.29 48.44 464.08 49.21 464.87 49.99 465.53 50.64 466.05 51.55 466.58 52.19 467.37 52.97 467.9 53.62 468.55 54.14 469.21 54.52 469.87 55.17 470.39 54.91 471.05 54.65 471.84 54.39 472.5 54.27 473.02 54.14 473.55 54.01 474.2 53.88 474.73 53.75 475.78 53.1 477.1 52.71 478.15 52.32 479.33 51.8 480.12 51.67 480.78 51.42 481.57 51.29 482.35 50.9 482.88 51.29 483.54 51.55 484.19 51.8 484.85 52.06 485.12 52.84 485.38 53.62 485.64 54.39 485.9 55.17 485.9 56.21 486.17 57.12 486.17 58.02 486.17 59.19 486.69 59.83 487.09 60.74 487.48 61.39 487.87 62.17 488.53 63.2 489.06 64.11 489.58 64.89 490.11 65.92 490.64 66.31 491.42 66.83 491.95 67.22 492.61 67.61 493.13 67.87 493.92 67.99 494.58 67.99 495.1 68.12 496.29 67.61 497.47 67.22 498.65 66.7 499.71 66.31 501.02 65.92 502.2 65.66 503.52 65.15 504.7 64.89 505.62 64.89 506.54 65.02 507.46 65.15 508.51 65.4 509.43 65.02 510.35 64.76 511.27 64.37 512.19 64.11 512.72 63.85 513.11 63.59 513.64 63.2 514.17 62.81 514.3 63.59 514.56 64.24 514.69 64.89 515.09 65.66 515.61 65.15 516.14 64.89 516.66 64.63 517.19 64.37 517.71 64.63 518.11 64.89 518.5 65.15 518.9 65.53 518.24 66.18 517.71 66.83 517.06 67.61 516.53 68.38 516.4 68.9 516.27 69.42 516.14 70.2 516.14 70.71 515.48 70.84 514.56 70.97 513.9 71.1 513.24 71.23 512.32 71.23 511.67 71.23 511.01 71.36 510.35 71.36 509.43 71.49 508.64 71.75 507.86 72.01 506.93 72.27 505.75 72.01 504.57 71.88 503.39 71.62 502.2 71.36 501.41 71.36 500.76 71.36 499.97 71.36 499.31 71.36 499.05 71.62 498.79 72.01 498.52 72.4 498.26 72.92 498.52 73.3 498.65 73.69 498.92 74.21 499.18 74.6 499.71 74.73 500.36 75.25 501.02 75.51 501.68 75.77 502.07 75.77 502.6 75.77 503.12 75.77 503.65 75.77 504.17 75.51 504.7 75.25 505.23 74.99 505.88 74.47 506.41 74.73 506.8 75.12 507.33 75.38 507.86 75.64 508.91 76.03 509.83 76.54 510.88 76.93 511.93 77.58 512.85 77.58 513.51 77.71 514.3 77.84 515.22 77.97 515.61 77.84 516.14 77.84 516.66 77.71 517.06 77.71 517.71 77.45 518.11 77.06 518.63 76.93 519.03 76.67 520.08 77.45 521 77.97 521.92 78.62 522.97 79.13 523.63 78.62 524.29 78.1 525.21 77.58 525.86 76.93 526.78 77.06 527.7 77.32 528.49 77.32 529.28 77.58 530.07 77.58 530.6 77.71 531.12 77.84 531.65 77.97 532.7 78.49 533.62 79.13 534.8 79.78 535.72 80.43 536.91 80.82 537.83 81.34 538.75 81.72 539.93 82.24 540.59 83.28 541.38 84.18 542.16 85.35 542.95 86.26 543.35 86.26 543.87 86.13 544.4 86.13 544.92 86 545.98 86.64 547.03 87.29 547.95 87.94 549.13 88.59 549.66 88.98 550.18 89.49 550.84 89.88 551.63 90.27 552.15 90.4 552.68 90.53 553.21 90.66 553.86 90.79 553.99 91.7 554.26 92.47 554.39 93.25 554.65 94.16 553.99 95.45 553.21 96.75 552.55 98.04 551.89 99.34 551.5 99.86 551.1 100.5 550.71 101.15 550.44 101.67 550.05 102.06 549.79 102.45 549.39 102.83 549.13 103.22 549.13 104 549.26 104.65 549.26 105.43 549.26 106.33 549 106.59 548.47 106.85 548.21 107.11 547.95 107.5 546.76 107.24 545.45 107.11 544.4 106.85 543.08 106.72 542.56 106.46 542.03 106.07 541.38 105.68 540.85 105.55 540.85 106.07 540.85 106.59 540.85 107.11 540.85 107.5 541.24 108.27 541.77 108.79 542.16 109.44 542.69 109.96 542.56 110.74 542.43 111.38 542.3 111.9 542.3 112.55 541.38 113.07 540.72 113.46 540.06 113.84 539.27 114.23 538.48 113.97 537.83 113.71 537.17 113.59 536.38 113.46 535.72 111.9 535.2 110.48 534.67 109.05 534.01 107.63 533.49 107.37 532.96 107.11 532.3 106.72 531.78 106.59 530.86 106.33 530.07 106.2 529.15 105.94 528.23 105.68 526.92 106.07 525.86 106.46 524.55 106.85 523.37 107.24 521.39 106.98 519.42 106.72 517.58 106.59 515.61 106.33 514.69 106.59 514.03 106.85 513.24 107.11 512.32 107.5 511.4 107.5 510.48 107.5 509.43 107.5 508.51 107.63 507.86 107.76 506.93 108.02 506.28 108.4 505.62 108.53 504.57 108.02 503.78 107.76 502.86 107.37 502.07 107.11 501.28 107.63 500.23 108.4 499.44 108.92 498.65 109.57 497.73 109.05 496.81 108.4 495.89 107.63 494.97 107.11 494.32 107.11 493.66 107.11 492.87 106.98 492.34 106.98 491.69 107.37 490.77 107.76 490.11 108.02 489.45 108.53 488.53 108.66 487.48 108.79 486.69 108.92 485.77 109.05 485.12 109.05 484.46 109.05 483.8 109.05 483.14 109.05 482.22 110.74 481.3 112.29 480.25 114.1 479.46 115.79 478.67 116.43 478.02 117.08 477.36 117.6 476.7 118.38 475.78 118.38 474.86 118.51 474.07 118.51 473.02 118.51 472.1 118.38 471.18 118.25 470.26 117.99 469.34 117.86 468.42 118.51 467.63 119.16 466.58 119.8 465.92 120.58 465 120.71 463.95 120.84 463.03 120.97 462.11 121.1 461.45 119.93 460.93 119.03 460.4 117.99 460.01 116.95 459.75 116.18 459.75 115.14 459.61 114.23 459.35 113.46 458.82 112.68 458.43 112.16 458.04 111.51 457.64 110.99 457.12 111.25 456.33 111.51 455.8 111.9 455.28 112.16 454.75 112.68 454.22 113.33 453.7 113.84 453.17 114.49 452.38 114.62 451.46 114.88 450.54 115.01 449.62 115.4 448.31 116.43 446.99 117.47 445.68 118.64 444.23 119.67 443.45 119.16 442.66 118.51 441.61 117.99 440.82 117.21 440.29 117.47 439.63 117.6 439.11 117.99 438.58 118.25 438.58 118.9 438.45 119.67 438.45 120.45 438.45 121.23 438.71 121.75 439.11 122.26 439.5 123.04 439.9 123.56 438.58 126.02 437.14 128.61 435.82 131.07 434.51 133.66 433.46 135.34 432.27 136.9 431.35 138.45 430.3 140.14 429.64 140.53 428.99 140.78 428.46 141.04 427.67 141.3 427.41 143.12 427.01 144.8 426.75 146.61 426.49 148.3 425.96 148.3 425.31 148.43 424.78 148.43 424.25 148.56 423.47 147.26 422.55 145.96 421.76 144.8 420.84 143.37 419.52 143.24 418.08 143.12 416.76 142.99 415.32 142.86 415.58 141.82 415.97 140.53 416.37 139.49 416.63 138.32 416.24 137.42 415.71 136.38 415.32 135.47 415.05 134.57 414.26 133.92 413.21 133.27 412.42 132.75 411.64 132.11 411.64 130.94 411.77 129.91 411.77 128.87 411.77 127.83 411.5 126.93 410.98 126.28 410.58 125.5 410.32 124.72 410.85 124.21 411.5 123.82 412.03 123.3 412.55 122.91 412.82 122 412.95 121.36 413.21 120.58 413.34 119.8 411.77 118.51 409.93 117.08 408.22 115.66 406.38 114.23 405.85 114.1 405.33 114.1 404.8 113.97 404.27 113.84 404.27 113.2 404.27 112.42 404.41 111.77 404.41 111.25 403.35 110.35 402.43 109.57 401.51 108.79 400.59 107.89 400.99 107.5 401.38 106.98 401.91 106.59 402.3 106.2 403.35 106.2 404.54 106.2 405.46 106.33 406.38 106.33 407.56 105.17 408.48 104.13 409.53 103.09 410.45 102.06 410.85 101.28 411.37 100.24 411.64 99.47 412.03 98.43 411.64 97.52 411.37 96.62 410.85 95.71 410.45 94.8 410.19 93.77 409.93 92.99 409.66 92.21 409.4 91.31 408.35 91.18 407.43 91.05 406.38 90.92 405.46 90.92 405.72 90.27 405.85 89.75 405.98 89.24 406.11 88.59 407.43 87.81 408.48 87.03 409.79 86.13 410.85 85.48 411.5 84.7 412.03 83.8 412.69 83.02 413.21 82.24 413.21 81.47 413.34 80.69 413.34 80.04 413.34 79.13 412.69 78.49 411.9 77.84 410.98 77.06 410.19 76.41 409.4 75.77 408.48 75.25 407.69 74.47 406.9 73.95 407.17 73.56 407.56 73.18 407.82 72.79 408.09 72.27 408.74 71.62 409.53 70.97 410.19 70.2 410.85 69.42 410.58 68.64 410.32 67.87 410.06 66.83 409.79 66.05 409.27 65.15 408.61 64.37 408.09 63.59 407.56 62.68 407.3 61.78 407.03 61 406.77 60.09 406.38 59.32 407.03 58.41 407.43 57.24 407.95 56.34 408.48 55.3 407.82 54.65 407.17 54.01 406.38 53.23 405.72 52.58 406.38 51.93 407.03 51.42 407.69 50.64 408.35 49.99 409.01 49.6 409.53 49.21 410.19 48.83 410.71 48.44 410.71 47.92 410.71 47.27 410.71 46.75 414.13 45.07 416.5 45.85 418.08 46.49 422.68 48.18 427.28 48.44 429.12 46.75 430.3 45.85 430.3 45.85"/>
      <g>
        <path class="cls-2" d="M801.97,363.43c-3.94-6.48-9.6-11.53-16.96-15.28-4.86-2.46-10.78-4.14-18.01-5.18-4.21-.65-9.73-1.04-16.56-1.29-4.6-.13-9.86-.26-15.64-.26h-41.14v144.41h36.15v-53.75h4.99c5.78,0,11.04-.13,15.64-.26,6.44-.26,11.83-.78,16.17-1.3,7.36-1.17,13.54-2.85,18.4-5.18,7.36-3.63,13.01-8.81,16.96-15.41,3.81-6.73,5.78-14.38,5.78-23.31s-1.97-16.58-5.78-23.18Zm-37.46,39.63c-3.02,1.94-7.62,3.37-14.07,4.02-3.02,.26-6.57,.52-10.52,.52h-10.12v-41.71h10.12c3.94,0,7.49,.13,10.52,.52,6.44,.65,11.17,1.94,14.07,4.02,4.47,2.98,6.7,8.55,6.7,16.45s-2.23,13.08-6.7,16.19Z"/>
        <polygon class="cls-2" points="428.65 369.26 469.93 369.26 469.93 485.83 506.08 485.83 506.08 369.26 547.35 369.26 547.35 341.41 428.65 341.41 428.65 369.26"/>
        <polygon class="cls-2" points="599.14 423.01 649.49 423.01 649.49 395.16 599.14 395.16 599.14 369.26 677.22 369.26 677.22 341.41 562.86 341.41 562.86 485.83 677.62 485.83 677.62 457.85 599.14 457.85 599.14 423.01"/>
        <rect class="cls-1" y="341.67" width="36.54" height="144.16"/>
        <path class="cls-2" d="M411.7,368.48c-.28-.84-.58-1.67-.91-2.48-.33-.81-.67-1.61-1.04-2.4-2.23-4.71-5.31-8.91-9.35-12.6-4.73-4.27-10.78-7.64-17.75-9.97-6.97-2.07-14.72-3.24-23.27-3.24s-16.3,1.17-23.27,3.24c-6.83,2.33-12.75,5.7-17.61,9.97-3.29,3.08-6.01,6.51-8.1,10.29-1.26,2.27-2.28,4.67-3.07,7.19-.28,.84-.54,1.75-.78,2.72-1.7,6.8-2.5,16.74-2.5,29.66v25.52c0,14.76,1.05,25.51,3.29,32.38,1.58,5.05,4.12,9.59,7.5,13.57,1.13,1.33,2.35,2.59,3.67,3.79,3.65,3.3,7.89,6.02,12.66,8.11,1.59,.69,3.24,1.32,4.95,1.87,5.23,1.75,10.89,2.84,17.01,3.28,2.04,.15,4.12,.22,6.26,.22s4.22-.07,6.26-.22c2.37-.17,4.65-.47,6.88-.83,3.53-.58,6.92-1.37,10.12-2.45,1.74-.55,3.43-1.17,5.05-1.87s3.18-1.46,4.66-2.29c2.97-1.67,5.67-3.61,8.03-5.81,1.35-1.2,2.59-2.46,3.73-3.79,1.48-1.72,2.77-3.56,3.91-5.49,.61-1.04,1.2-2.1,1.72-3.2,.51-1.07,.95-2.18,1.38-3.3,.2-.52,.4-1.04,.58-1.58,.5-1.53,.93-3.29,1.31-5.21,1.33-6.69,1.97-15.7,1.97-27.17v-25.52c0-11.07-.59-19.96-1.83-26.56-.41-2.2-.9-4.14-1.46-5.82Zm-52.32,93c-3.55,0-6.54-.49-8.99-1.43-1.84-.7-3.37-1.66-4.6-2.86-.41-.4-.79-.83-1.13-1.28-.66-.94-1.24-2.15-1.75-3.62-.51-1.48-.93-3.22-1.28-5.24-.69-4.03-1.05-9.15-1.05-15.36v-36.39c0-6,.34-10.95,.99-14.91,.69-4.25,1.73-7.37,3.09-9.31,2.76-3.63,7.63-5.57,14.72-5.57s11.96,1.94,14.72,5.57c2.63,3.76,4.07,11.79,4.07,24.22v36.39c0,3.11-.09,5.94-.27,8.5-.53,7.68-1.84,12.9-3.81,15.72-.34,.45-.72,.88-1.13,1.28-.57,.55-1.22,1.04-1.92,1.49-.81,.53-1.69,1-2.68,1.38-2.45,.94-5.44,1.43-8.99,1.43Z"/>
        <polygon class="cls-2" points="138.42 425.21 88.86 341.41 52.05 341.41 52.32 486.09 85.44 486.09 85.31 389.34 142.23 485.83 171.8 485.83 171.8 341.41 138.42 341.41 138.42 425.21"/>
        <polygon class="cls-2" points="185.61 485.83 221.75 485.83 221.75 423.01 269.73 423.01 269.73 395.16 221.75 395.16 221.75 370.94 292.47 370.94 292.47 341.41 185.61 341.41 185.61 485.83"/>
      </g>
    </g>
    <g>
      <path class="cls-3" d="M917.71,365.9v-8.85h10.67v-76.89h-10.67v-8.22h42.3v8.22h-10.8v76.89h10.8v8.85h-42.3Z"/>
      <path class="cls-3" d="M973,365.9v-68.41h17.76v12.99c3.43-4.98,6.87-8.64,10.32-10.98,3.45-2.34,7.12-3.51,11.02-3.51,4.64,0,8.22,1.43,10.73,4.3,2.51,2.87,3.77,6.92,3.77,12.15v53.47h-17.83v-42.68c0-4.48-.42-7.38-1.26-8.69-.84-1.32-2.39-1.98-4.64-1.98-1.76,0-3.65,.58-5.68,1.73-2.03,1.15-4.17,2.86-6.43,5.12v46.51h-17.76Z"/>
      <path class="cls-3" d="M1039.53,358.05l8.35-12.49c2.47,2.76,4.88,4.82,7.25,6.18,2.36,1.36,4.65,2.04,6.87,2.04,2.09,0,3.84-.53,5.24-1.6,1.4-1.07,2.1-2.37,2.1-3.92,0-2.38-2.91-5.25-8.72-8.6-2.01-1.17-3.6-2.11-4.77-2.82-6.11-3.72-10.17-7.04-12.18-9.95-2.01-2.91-3.01-6.5-3.01-10.76,0-5.94,2.12-10.79,6.37-14.53,4.25-3.74,9.76-5.62,16.54-5.62,3.1,0,6.33,.53,9.7,1.6,3.37,1.07,6.98,2.71,10.83,4.93l-8.1,11.99c-2.01-1.88-4.1-3.3-6.28-4.24-2.18-.94-4.42-1.41-6.72-1.41-2.09,0-3.68,.4-4.77,1.19-1.09,.8-1.63,1.97-1.63,3.51,0,1.97,2.97,4.71,8.91,8.22,1.05,.63,1.84,1.11,2.39,1.44,.5,.29,1.3,.75,2.39,1.38,4.69,2.72,8.14,5.04,10.36,6.97,1.88,1.72,3.32,3.75,4.3,6.09,.98,2.34,1.47,4.94,1.47,7.78,0,6.49-2.2,11.78-6.59,15.88-4.39,4.1-10.13,6.15-17.2,6.15-4.02,0-7.94-.79-11.77-2.35-3.83-1.57-7.61-3.92-11.33-7.06Z"/>
      <path class="cls-3" d="M1120.43,337.72c0,5.73,.74,9.55,2.23,11.45,1.48,1.9,4.26,2.86,8.32,2.86,.25,0,.65-.02,1.19-.06,.54-.04,.96-.06,1.26-.06v15.13c-.92,.12-1.91,.21-2.98,.25-1.07,.04-2.56,.06-4.49,.06-8.62,0-14.67-1.7-18.14-5.12-3.47-3.41-5.21-9.38-5.21-17.92v-33.83h-10.04v-12.99h10.04v-24.54h17.82v24.54h12.49v12.99h-12.49v27.24Z"/>
      <path class="cls-3" d="M1148.99,284.93v-15.44h17.89v15.44h-17.89Zm0,80.97v-68.41h17.89v68.41h-17.89Z"/>
      <path class="cls-3" d="M1206.17,337.72c0,5.73,.74,9.55,2.23,11.45,1.48,1.9,4.26,2.86,8.32,2.86,.25,0,.65-.02,1.19-.06,.54-.04,.96-.06,1.26-.06v15.13c-.92,.12-1.91,.21-2.98,.25-1.07,.04-2.56,.06-4.49,.06-8.62,0-14.67-1.7-18.14-5.12-3.47-3.41-5.21-9.38-5.21-17.92v-33.83h-10.04v-12.99h10.04v-24.54h17.82v24.54h12.49v12.99h-12.49v27.24Z"/>
      <path class="cls-3" d="M1288.2,297.48v68.41h-17.82v-12.99c-3.43,5.02-6.85,8.7-10.26,11.05-3.41,2.34-7.06,3.51-10.95,3.51-4.44,0-7.99-1.38-10.67-4.14-2.68-2.76-4.02-6.4-4.02-10.92v-54.92h17.89v42.68c0,4.44,.42,7.32,1.26,8.66,.84,1.34,2.43,2.01,4.77,2.01,1.67,0,3.5-.57,5.49-1.73,1.99-1.15,4.15-2.88,6.5-5.18v-46.45h17.82Z"/>
      <path class="cls-3" d="M1327.68,337.72c0,5.73,.74,9.55,2.23,11.45,1.48,1.9,4.26,2.86,8.32,2.86,.25,0,.65-.02,1.19-.06,.54-.04,.96-.06,1.26-.06v15.13c-.92,.12-1.91,.21-2.98,.25-1.07,.04-2.56,.06-4.49,.06-8.62,0-14.67-1.7-18.14-5.12-3.47-3.41-5.21-9.38-5.21-17.92v-33.83h-10.04v-12.99h10.04v-24.54h17.82v24.54h12.49v12.99h-12.49v27.24Z"/>
      <path class="cls-3" d="M1407.14,337.46c0,10.08-2.21,17.61-6.62,22.56-4.42,4.96-11.12,7.44-20.12,7.44s-15.7-2.48-20.12-7.44c-4.42-4.96-6.62-12.48-6.62-22.56v-11.55c0-10.08,2.21-17.59,6.62-22.53,4.41-4.94,11.12-7.41,20.12-7.41s15.7,2.47,20.12,7.41c4.41,4.94,6.62,12.45,6.62,22.53v11.55Zm-35.34-5.77c0,9.54,.62,15.5,1.85,17.89,1.23,2.38,3.48,3.58,6.75,3.58s5.45-1.16,6.68-3.48c1.23-2.32,1.85-8.32,1.85-17.98s-.62-15.61-1.85-17.95c-1.23-2.34-3.46-3.51-6.68-3.51s-5.51,1.19-6.75,3.58c-1.23,2.38-1.85,8.35-1.85,17.89Z"/>
      <path class="cls-3" d="M1461.68,365.9v-93.96h20.02l30.06,57.05-.38-57.05h18.14v93.96h-17.07l-33.08-63.52,.38,63.52h-18.08Z"/>
      <path class="cls-3" d="M1583.82,358.3c-3.26,3.18-6.42,5.5-9.48,6.97-3.06,1.46-6.3,2.2-9.73,2.2-5.23,0-9.43-1.73-12.58-5.18-3.16-3.45-4.74-8.02-4.74-13.71,0-7.66,2.82-13.8,8.47-18.42,5.65-4.62,14.14-7.71,25.48-9.26v-5.4c0-2.05-.83-3.71-2.48-4.99-1.65-1.28-3.84-1.91-6.56-1.91-2.43,0-4.92,.55-7.47,1.66-2.55,1.11-5.33,2.86-8.35,5.24l-8.35-10.67c3.6-2.97,7.47-5.19,11.61-6.65,4.14-1.46,8.68-2.2,13.62-2.2,8.49,0,14.92,1.98,19.27,5.93,4.35,3.95,6.53,9.82,6.53,17.61v29.44c0,1.09,.28,2,.85,2.73,.56,.73,1.37,1.22,2.42,1.47l-.06,13.37c-.34,.04-.71,.07-1.13,.09-.42,.02-1.03,.03-1.82,.03-3.64,0-6.74-.68-9.29-2.04-2.55-1.36-4.62-3.46-6.21-6.31Zm-2.57-26.99c-5.19,.67-9.3,2.28-12.33,4.83-3.03,2.55-4.55,5.61-4.55,9.16,0,2.47,.69,4.48,2.07,6.03,1.38,1.55,3.14,2.32,5.27,2.32,3.01,0,5.36-1.24,7.03-3.73,1.67-2.49,2.51-6.04,2.51-10.64v-7.97Z"/>
      <path class="cls-3" d="M1648.47,317.69c0-2.3-.62-4.1-1.85-5.4-1.23-1.3-2.94-1.95-5.12-1.95-2.89,0-4.96,.99-6.21,2.98s-1.88,5.32-1.88,10.01v17.26c0,4.52,.64,7.72,1.91,9.6,1.28,1.88,3.38,2.83,6.31,2.83,2.3,0,4.1-.72,5.4-2.17,1.3-1.44,1.95-3.46,1.95-6.06,0-.17-.02-.43-.06-.78-.04-.36-.06-.64-.06-.85h15.69v2.13c0,7.45-1.99,13-5.96,16.66-3.98,3.66-9.96,5.49-17.95,5.49-8.66,0-15.05-2.2-19.17-6.59-4.12-4.39-6.18-11.15-6.18-20.27v-18.39c0-8.49,2.17-14.99,6.5-19.49,4.33-4.5,10.58-6.75,18.74-6.75,7.2,0,12.78,1.78,16.76,5.33,3.97,3.56,5.96,8.54,5.96,14.94v1.44h-14.75Z"/>
      <path class="cls-3" d="M1679.41,284.93v-15.44h17.89v15.44h-17.89Zm0,80.97v-68.41h17.89v68.41h-17.89Z"/>
      <path class="cls-3" d="M1766.02,337.46c0,10.08-2.21,17.61-6.62,22.56-4.42,4.96-11.12,7.44-20.12,7.44s-15.7-2.48-20.12-7.44c-4.42-4.96-6.62-12.48-6.62-22.56v-11.55c0-10.08,2.21-17.59,6.62-22.53,4.41-4.94,11.12-7.41,20.12-7.41s15.7,2.47,20.12,7.41c4.41,4.94,6.62,12.45,6.62,22.53v11.55Zm-35.34-5.77c0,9.54,.62,15.5,1.85,17.89,1.23,2.38,3.48,3.58,6.75,3.58s5.45-1.16,6.68-3.48c1.23-2.32,1.85-8.32,1.85-17.98s-.62-15.61-1.85-17.95c-1.23-2.34-3.46-3.51-6.68-3.51s-5.51,1.19-6.75,3.58c-1.23,2.38-1.85,8.35-1.85,17.89Z"/>
      <path class="cls-3" d="M1781.46,365.9v-68.41h17.76v12.99c3.43-4.98,6.87-8.64,10.32-10.98,3.45-2.34,7.12-3.51,11.02-3.51,4.64,0,8.22,1.43,10.73,4.3,2.51,2.87,3.77,6.92,3.77,12.15v53.47h-17.82v-42.68c0-4.48-.42-7.38-1.26-8.69-.84-1.32-2.39-1.98-4.64-1.98-1.76,0-3.65,.58-5.68,1.73-2.03,1.15-4.17,2.86-6.43,5.12v46.51h-17.76Z"/>
      <path class="cls-3" d="M1885.65,358.3c-3.26,3.18-6.42,5.5-9.48,6.97-3.06,1.46-6.3,2.2-9.73,2.2-5.23,0-9.43-1.73-12.58-5.18-3.16-3.45-4.74-8.02-4.74-13.71,0-7.66,2.82-13.8,8.47-18.42,5.65-4.62,14.14-7.71,25.48-9.26v-5.4c0-2.05-.83-3.71-2.48-4.99-1.65-1.28-3.84-1.91-6.56-1.91-2.43,0-4.92,.55-7.47,1.66-2.55,1.11-5.33,2.86-8.35,5.24l-8.35-10.67c3.6-2.97,7.47-5.19,11.61-6.65,4.14-1.46,8.68-2.2,13.62-2.2,8.49,0,14.92,1.98,19.27,5.93,4.35,3.95,6.53,9.82,6.53,17.61v29.44c0,1.09,.28,2,.85,2.73,.56,.73,1.37,1.22,2.42,1.47l-.06,13.37c-.34,.04-.71,.07-1.13,.09-.42,.02-1.03,.03-1.82,.03-3.64,0-6.74-.68-9.29-2.04-2.55-1.36-4.62-3.46-6.21-6.31Zm-2.57-26.99c-5.19,.67-9.3,2.28-12.33,4.83-3.03,2.55-4.55,5.61-4.55,9.16,0,2.47,.69,4.48,2.07,6.03,1.38,1.55,3.14,2.32,5.27,2.32,3.01,0,5.36-1.24,7.03-3.73,1.67-2.49,2.51-6.04,2.51-10.64v-7.97Z"/>
      <path class="cls-3" d="M1917.1,365.9v-96.41h17.89v96.41h-17.89Z"/>
      <path class="cls-3" d="M2042.37,365.9h-17.82v-12.11c-3.18,4.9-6.36,8.4-9.54,10.51-3.18,2.11-6.86,3.17-11.05,3.17-6.4,0-10.81-2.2-13.21-6.59-2.41-4.39-3.61-14.12-3.61-29.18s1.17-24.73,3.52-29.12c2.34-4.39,6.69-6.59,13.05-6.59,4.35,0,8.12,1.03,11.3,3.08,3.18,2.05,6.36,5.52,9.54,10.42v-39.98h17.82v96.41Zm-17.82-49.33c-2.8-1.71-5.21-2.98-7.22-3.8-2.01-.82-3.68-1.22-5.02-1.22-2.68,0-4.52,1.06-5.52,3.17-1,2.11-1.51,7.77-1.51,16.98s.5,14.85,1.51,16.95c1,2.09,2.84,3.14,5.52,3.14,1.38,0,3.1-.43,5.15-1.29,2.05-.86,4.41-2.1,7.09-3.73v-30.19Z"/>
      <path class="cls-3" d="M2107.46,362.82c-3.93,1.63-7.71,2.86-11.33,3.67-3.62,.82-7.12,1.22-10.51,1.22-8.75,0-15.43-2.41-20.05-7.22-4.62-4.81-6.94-11.76-6.94-20.84v-16.19c0-8.95,2.1-15.79,6.31-20.52s10.28-7.09,18.23-7.09c7.41,0,13.24,2.2,17.51,6.59s6.4,10.42,6.4,18.08v14.81h-31.76v5.9c0,3.93,1.18,6.99,3.55,9.16,2.36,2.18,5.68,3.26,9.95,3.26,2.3,0,4.81-.38,7.53-1.13,2.72-.75,5.69-1.9,8.91-3.45l2.2,13.75Zm-32.14-37.66h16.7v-5.9c0-3.81-.7-6.67-2.1-8.6-1.4-1.92-3.48-2.89-6.25-2.89-2.59,0-4.63,.98-6.12,2.95-1.49,1.97-2.23,4.67-2.23,8.1v6.34Z"/>
      <path class="cls-3" d="M924.04,503.33v-93.96h61.57v18.14h-40.73v16.82h27.62v18.14h-27.62v40.86h-20.84Z"/>
      <path class="cls-3" d="M1038.34,474.9c0,10.08-2.21,17.61-6.62,22.56-4.42,4.96-11.12,7.44-20.12,7.44s-15.7-2.48-20.12-7.44c-4.42-4.96-6.62-12.48-6.62-22.56v-11.55c0-10.08,2.21-17.59,6.62-22.53,4.41-4.94,11.12-7.41,20.12-7.41s15.7,2.47,20.12,7.41c4.41,4.94,6.62,12.45,6.62,22.53v11.55Zm-35.34-5.77c0,9.54,.62,15.5,1.85,17.89,1.23,2.38,3.48,3.58,6.75,3.58s5.45-1.16,6.68-3.48c1.23-2.32,1.85-8.32,1.85-17.98s-.62-15.61-1.85-17.95c-1.23-2.34-3.46-3.51-6.68-3.51s-5.51,1.19-6.75,3.58c-1.23,2.38-1.85,8.35-1.85,17.89Z"/>
      <path class="cls-3" d="M1053.4,503.33v-68.41h16.44v14.81c2.97-5.31,6.18-9.33,9.63-12.05,3.45-2.72,7.19-4.18,11.2-4.39v23.47c-4.48,.25-8.3,.89-11.45,1.92-3.16,1.03-5.85,2.54-8.07,4.55v40.11h-17.76Z"/>
      <path class="cls-3" d="M1103.8,503.33v-68.41h17.76v12.99c3.43-4.98,6.87-8.64,10.32-10.98,3.45-2.34,7.12-3.51,11.02-3.51,3.56,0,6.46,1.05,8.72,3.14,2.26,2.09,3.93,5.29,5.02,9.6,5.77-5.27,10.15-8.71,13.12-10.33,2.97-1.61,5.92-2.42,8.85-2.42,4.27,0,7.78,1.34,10.54,4.02,2.76,2.68,4.14,6.09,4.14,10.23v55.67h-17.89v-42.68c0-4.48-.41-7.38-1.22-8.69-.82-1.32-2.38-1.98-4.68-1.98-1.72,0-3.6,.58-5.65,1.73-2.05,1.15-4.21,2.86-6.46,5.12v46.51h-17.83v-42.68c0-4.48-.42-7.38-1.26-8.69-.84-1.32-2.39-1.98-4.64-1.98-1.76,0-3.65,.58-5.68,1.73-2.03,1.15-4.17,2.86-6.43,5.12v46.51h-17.76Z"/>
      <path class="cls-3" d="M1243.58,495.74c-3.26,3.18-6.42,5.5-9.48,6.97-3.05,1.46-6.3,2.2-9.73,2.2-5.23,0-9.43-1.73-12.58-5.18-3.16-3.45-4.74-8.02-4.74-13.71,0-7.66,2.82-13.8,8.47-18.42,5.65-4.62,14.14-7.71,25.48-9.26v-5.4c0-2.05-.83-3.71-2.48-4.99-1.65-1.28-3.84-1.91-6.56-1.91-2.43,0-4.92,.55-7.47,1.66-2.55,1.11-5.33,2.86-8.35,5.24l-8.35-10.67c3.6-2.97,7.47-5.19,11.61-6.65,4.14-1.46,8.68-2.2,13.62-2.2,8.49,0,14.92,1.98,19.27,5.93,4.35,3.95,6.53,9.82,6.53,17.61v29.44c0,1.09,.28,2,.85,2.73,.56,.73,1.37,1.22,2.42,1.47l-.06,13.37c-.34,.04-.71,.07-1.13,.09-.42,.02-1.03,.03-1.82,.03-3.64,0-6.74-.68-9.29-2.04-2.55-1.36-4.62-3.46-6.21-6.31Zm-2.57-26.99c-5.19,.67-9.3,2.28-12.33,4.83-3.03,2.55-4.55,5.61-4.55,9.16,0,2.47,.69,4.48,2.07,6.03,1.38,1.55,3.14,2.32,5.27,2.32,3.01,0,5.36-1.24,7.03-3.73,1.67-2.49,2.51-6.04,2.51-10.64v-7.97Z"/>
      <path class="cls-3" d="M1308.22,455.13c0-2.3-.62-4.1-1.85-5.4-1.23-1.3-2.94-1.95-5.12-1.95-2.89,0-4.96,.99-6.21,2.98-1.26,1.99-1.88,5.32-1.88,10.01v17.26c0,4.52,.64,7.72,1.91,9.6,1.28,1.88,3.38,2.83,6.31,2.83,2.3,0,4.1-.72,5.4-2.17,1.3-1.44,1.95-3.46,1.95-6.06,0-.17-.02-.43-.06-.78-.04-.36-.06-.64-.06-.85h15.69v2.13c0,7.45-1.99,13-5.96,16.66-3.98,3.66-9.96,5.49-17.95,5.49-8.66,0-15.05-2.2-19.17-6.59-4.12-4.39-6.18-11.15-6.18-20.27v-18.39c0-8.49,2.17-14.99,6.5-19.49,4.33-4.5,10.58-6.75,18.74-6.75,7.2,0,12.78,1.78,16.76,5.33,3.97,3.56,5.96,8.54,5.96,14.94v1.44h-14.75Z"/>
      <path class="cls-3" d="M1339.17,422.36v-15.44h17.89v15.44h-17.89Zm0,80.97v-68.41h17.89v68.41h-17.89Z"/>
      <path class="cls-3" d="M1425.78,474.9c0,10.08-2.21,17.61-6.62,22.56-4.42,4.96-11.12,7.44-20.12,7.44s-15.7-2.48-20.12-7.44c-4.42-4.96-6.62-12.48-6.62-22.56v-11.55c0-10.08,2.21-17.59,6.62-22.53,4.41-4.94,11.12-7.41,20.12-7.41s15.7,2.47,20.12,7.41c4.41,4.94,6.62,12.45,6.62,22.53v11.55Zm-7.59-71.68l-20.4,23.22h-9.67l12.05-23.22h18.01Zm-27.74,65.9c0,9.54,.62,15.5,1.85,17.89,1.23,2.38,3.48,3.58,6.75,3.58s5.45-1.16,6.68-3.48c1.23-2.32,1.85-8.32,1.85-17.98s-.62-15.61-1.85-17.95c-1.23-2.34-3.46-3.51-6.68-3.51s-5.51,1.19-6.75,3.58c-1.23,2.38-1.85,8.35-1.85,17.89Z"/>
      <path class="cls-3" d="M1441.22,503.33v-68.41h17.76v12.99c3.43-4.98,6.87-8.64,10.32-10.98,3.45-2.34,7.12-3.51,11.02-3.51,4.64,0,8.22,1.43,10.73,4.3,2.51,2.87,3.77,6.92,3.77,12.15v53.47h-17.83v-42.68c0-4.48-.42-7.38-1.26-8.69-.84-1.32-2.39-1.98-4.64-1.98-1.76,0-3.65,.58-5.68,1.73-2.03,1.15-4.17,2.86-6.43,5.12v46.51h-17.76Z"/>
      <path class="cls-3" d="M1564.93,503.33v-75.82h-23.79v-18.14h68.35v18.14h-23.79v75.82h-20.78Z"/>
      <path class="cls-3" d="M1667.74,500.25c-3.93,1.63-7.71,2.86-11.33,3.67-3.62,.82-7.12,1.22-10.51,1.22-8.75,0-15.43-2.41-20.05-7.22-4.62-4.81-6.94-11.76-6.94-20.84v-16.19c0-8.95,2.1-15.79,6.31-20.52s10.28-7.09,18.23-7.09c7.41,0,13.24,2.2,17.51,6.59s6.4,10.42,6.4,18.08v14.81h-31.76v5.9c0,3.93,1.18,6.99,3.55,9.16,2.36,2.18,5.68,3.26,9.95,3.26,2.3,0,4.81-.38,7.53-1.13,2.72-.75,5.69-1.9,8.91-3.45l2.2,13.75Zm-5.15-97.03l-20.4,23.22h-9.67l12.05-23.22h18.01Zm-26.99,59.37h16.7v-5.9c0-3.81-.7-6.67-2.1-8.6-1.4-1.92-3.48-2.89-6.25-2.89-2.59,0-4.63,.98-6.12,2.95-1.49,1.97-2.23,4.67-2.23,8.1v6.34Z"/>
      <path class="cls-3" d="M1717.76,455.13c0-2.3-.62-4.1-1.85-5.4-1.23-1.3-2.94-1.95-5.12-1.95-2.89,0-4.96,.99-6.21,2.98s-1.88,5.32-1.88,10.01v17.26c0,4.52,.64,7.72,1.91,9.6,1.28,1.88,3.38,2.83,6.31,2.83,2.3,0,4.1-.72,5.4-2.17,1.3-1.44,1.95-3.46,1.95-6.06,0-.17-.02-.43-.06-.78-.04-.36-.06-.64-.06-.85h15.69v2.13c0,7.45-1.99,13-5.96,16.66-3.98,3.66-9.96,5.49-17.95,5.49-8.66,0-15.05-2.2-19.17-6.59-4.12-4.39-6.18-11.15-6.18-20.27v-18.39c0-8.49,2.17-14.99,6.5-19.49,4.33-4.5,10.58-6.75,18.74-6.75,7.2,0,12.78,1.78,16.76,5.33,3.97,3.56,5.96,8.54,5.96,14.94v1.44h-14.75Z"/>
      <path class="cls-3" d="M1748.95,503.33v-68.41h17.76v12.99c3.43-4.98,6.87-8.64,10.32-10.98,3.45-2.34,7.12-3.51,11.02-3.51,4.64,0,8.22,1.43,10.73,4.3,2.51,2.87,3.77,6.92,3.77,12.15v53.47h-17.82v-42.68c0-4.48-.42-7.38-1.26-8.69-.84-1.32-2.39-1.98-4.64-1.98-1.76,0-3.65,.58-5.68,1.73-2.03,1.15-4.17,2.86-6.43,5.12v46.51h-17.76Z"/>
      <path class="cls-3" d="M1820.19,422.36v-15.44h17.89v15.44h-17.89Zm0,80.97v-68.41h17.89v68.41h-17.89Z"/>
      <path class="cls-3" d="M1889.23,455.13c0-2.3-.62-4.1-1.85-5.4-1.23-1.3-2.94-1.95-5.12-1.95-2.89,0-4.96,.99-6.21,2.98s-1.88,5.32-1.88,10.01v17.26c0,4.52,.64,7.72,1.91,9.6,1.28,1.88,3.38,2.83,6.31,2.83,2.3,0,4.1-.72,5.4-2.17,1.3-1.44,1.95-3.46,1.95-6.06,0-.17-.02-.43-.06-.78-.04-.36-.06-.64-.06-.85h15.69v2.13c0,7.45-1.99,13-5.96,16.66-3.98,3.66-9.96,5.49-17.95,5.49-8.66,0-15.05-2.2-19.17-6.59-4.12-4.39-6.18-11.15-6.18-20.27v-18.39c0-8.49,2.17-14.99,6.5-19.49,4.33-4.5,10.58-6.75,18.74-6.75,7.2,0,12.78,1.78,16.76,5.33,3.97,3.56,5.96,8.54,5.96,14.94v1.44h-14.75Z"/>
      <path class="cls-3" d="M1971.08,474.9c0,10.08-2.21,17.61-6.62,22.56-4.42,4.96-11.12,7.44-20.12,7.44s-15.7-2.48-20.12-7.44c-4.42-4.96-6.62-12.48-6.62-22.56v-11.55c0-10.08,2.21-17.59,6.62-22.53,4.41-4.94,11.12-7.41,20.12-7.41s15.7,2.47,20.12,7.41c4.41,4.94,6.62,12.45,6.62,22.53v11.55Zm-35.34-5.77c0,9.54,.62,15.5,1.85,17.89,1.23,2.38,3.48,3.58,6.75,3.58s5.45-1.16,6.68-3.48c1.23-2.32,1.85-8.32,1.85-17.98s-.62-15.61-1.85-17.95c-1.23-2.34-3.46-3.51-6.68-3.51s-5.51,1.19-6.75,3.58c-1.23,2.38-1.85,8.35-1.85,17.89Z"/>
      <path class="cls-3" d="M2025.05,409.37h23.66c8.24,0,14.44,.34,18.58,1,4.14,.67,7.59,1.8,10.36,3.39,4.27,2.38,7.52,5.71,9.76,9.98,2.24,4.27,3.36,9.29,3.36,15.06s-1.12,10.82-3.36,15.13c-2.24,4.31-5.49,7.66-9.76,10.04-2.8,1.55-6.34,2.67-10.61,3.36-4.27,.69-10.38,1.04-18.33,1.04h-2.82v34.96h-20.84v-93.96Zm20.84,15.94v27.11h5.77c6.9,0,11.63-.98,14.18-2.95,2.55-1.97,3.83-5.48,3.83-10.54s-1.27-8.7-3.8-10.67c-2.53-1.97-7.27-2.95-14.22-2.95h-5.77Z"/>
      <path class="cls-3" d="M2102.19,503.33v-68.41h16.44v14.81c2.97-5.31,6.18-9.33,9.63-12.05,3.45-2.72,7.19-4.18,11.2-4.39v23.47c-4.48,.25-8.3,.89-11.45,1.92-3.16,1.03-5.85,2.54-8.07,4.55v40.11h-17.76Z"/>
      <path class="cls-3" d="M2203.24,474.9c0,10.08-2.21,17.61-6.62,22.56-4.42,4.96-11.12,7.44-20.12,7.44s-15.7-2.48-20.12-7.44c-4.42-4.96-6.62-12.48-6.62-22.56v-11.55c0-10.08,2.21-17.59,6.62-22.53,4.41-4.94,11.12-7.41,20.12-7.41s15.7,2.47,20.12,7.41c4.41,4.94,6.62,12.45,6.62,22.53v11.55Zm-35.34-5.77c0,9.54,.62,15.5,1.85,17.89,1.23,2.38,3.48,3.58,6.75,3.58s5.45-1.16,6.68-3.48c1.23-2.32,1.85-8.32,1.85-17.98s-.62-15.61-1.85-17.95c-1.23-2.34-3.46-3.51-6.68-3.51s-5.51,1.19-6.75,3.58c-1.23,2.38-1.85,8.35-1.85,17.89Z"/>
      <path class="cls-3" d="M2224.89,503.33v-55.42h-9.79v-12.99h9.79v-9.35c0-6.82,1.74-11.63,5.21-14.44,3.47-2.8,9.44-4.21,17.89-4.21,1.38,0,3.64,.08,6.78,.25h.69v13.49h-2.7c-3.56,0-6.05,.45-7.47,1.35-1.42,.9-2.13,2.42-2.13,4.55v8.35h12.3v12.99h-12.3v55.42h-18.26Z"/>
      <path class="cls-3" d="M2316.03,500.25c-3.93,1.63-7.71,2.86-11.33,3.67-3.62,.82-7.12,1.22-10.51,1.22-8.75,0-15.43-2.41-20.05-7.22-4.62-4.81-6.94-11.76-6.94-20.84v-16.19c0-8.95,2.1-15.79,6.31-20.52s10.28-7.09,18.23-7.09c7.41,0,13.24,2.2,17.51,6.59s6.4,10.42,6.4,18.08v14.81h-31.76v5.9c0,3.93,1.18,6.99,3.55,9.16,2.36,2.18,5.68,3.26,9.95,3.26,2.3,0,4.81-.38,7.53-1.13,2.72-.75,5.69-1.9,8.91-3.45l2.2,13.75Zm-32.14-37.66h16.7v-5.9c0-3.81-.7-6.67-2.1-8.6-1.4-1.92-3.48-2.89-6.25-2.89-2.59,0-4.63,.98-6.12,2.95-1.49,1.97-2.23,4.67-2.23,8.1v6.34Z"/>
      <path class="cls-3" d="M2328.01,495.48l8.35-12.49c2.47,2.76,4.88,4.82,7.25,6.18,2.36,1.36,4.65,2.04,6.87,2.04,2.09,0,3.84-.53,5.24-1.6,1.4-1.07,2.1-2.37,2.1-3.92,0-2.38-2.91-5.25-8.72-8.6-2.01-1.17-3.6-2.11-4.77-2.82-6.11-3.72-10.17-7.04-12.18-9.95-2.01-2.91-3.01-6.5-3.01-10.76,0-5.94,2.12-10.79,6.37-14.53,4.25-3.74,9.76-5.62,16.54-5.62,3.1,0,6.33,.53,9.7,1.6,3.37,1.07,6.98,2.71,10.83,4.93l-8.1,11.99c-2.01-1.88-4.1-3.3-6.28-4.24-2.18-.94-4.42-1.41-6.72-1.41-2.09,0-3.68,.4-4.77,1.19-1.09,.8-1.63,1.97-1.63,3.51,0,1.97,2.97,4.71,8.91,8.22,1.05,.63,1.84,1.11,2.38,1.44,.5,.29,1.3,.75,2.39,1.38,4.69,2.72,8.14,5.04,10.36,6.97,1.88,1.72,3.32,3.75,4.3,6.09,.98,2.34,1.48,4.94,1.48,7.78,0,6.49-2.2,11.78-6.59,15.88-4.39,4.1-10.13,6.15-17.2,6.15-4.02,0-7.94-.79-11.77-2.35-3.83-1.57-7.6-3.92-11.33-7.06Z"/>
      <path class="cls-3" d="M2387.45,422.36v-15.44h17.89v15.44h-17.89Zm0,80.97v-68.41h17.89v68.41h-17.89Z"/>
      <path class="cls-3" d="M2474.07,474.9c0,10.08-2.21,17.61-6.62,22.56-4.42,4.96-11.12,7.44-20.12,7.44s-15.7-2.48-20.12-7.44c-4.42-4.96-6.62-12.48-6.62-22.56v-11.55c0-10.08,2.21-17.59,6.62-22.53,4.41-4.94,11.12-7.41,20.12-7.41s15.7,2.47,20.12,7.41c4.41,4.94,6.62,12.45,6.62,22.53v11.55Zm-35.34-5.77c0,9.54,.62,15.5,1.85,17.89,1.23,2.38,3.48,3.58,6.75,3.58s5.45-1.16,6.68-3.48c1.23-2.32,1.85-8.32,1.85-17.98s-.62-15.61-1.85-17.95c-1.23-2.34-3.46-3.51-6.68-3.51s-5.51,1.19-6.75,3.58c-1.23,2.38-1.85,8.35-1.85,17.89Z"/>
      <path class="cls-3" d="M2489.51,503.33v-68.41h17.76v12.99c3.43-4.98,6.87-8.64,10.32-10.98,3.45-2.34,7.12-3.51,11.02-3.51,4.64,0,8.22,1.43,10.73,4.3,2.51,2.87,3.77,6.92,3.77,12.15v53.47h-17.82v-42.68c0-4.48-.42-7.38-1.26-8.69-.84-1.32-2.39-1.98-4.64-1.98-1.76,0-3.65,.58-5.68,1.73-2.03,1.15-4.17,2.86-6.43,5.12v46.51h-17.76Z"/>
      <path class="cls-3" d="M2593.69,495.74c-3.26,3.18-6.42,5.5-9.48,6.97-3.06,1.46-6.3,2.2-9.73,2.2-5.23,0-9.43-1.73-12.58-5.18-3.16-3.45-4.74-8.02-4.74-13.71,0-7.66,2.82-13.8,8.47-18.42,5.65-4.62,14.14-7.71,25.48-9.26v-5.4c0-2.05-.83-3.71-2.48-4.99-1.65-1.28-3.84-1.91-6.56-1.91-2.43,0-4.92,.55-7.47,1.66-2.55,1.11-5.33,2.86-8.35,5.24l-8.35-10.67c3.6-2.97,7.47-5.19,11.61-6.65,4.14-1.46,8.68-2.2,13.62-2.2,8.49,0,14.92,1.98,19.27,5.93,4.35,3.95,6.53,9.82,6.53,17.61v29.44c0,1.09,.28,2,.85,2.73,.56,.73,1.37,1.22,2.42,1.47l-.06,13.37c-.34,.04-.71,.07-1.13,.09-.42,.02-1.03,.03-1.82,.03-3.64,0-6.74-.68-9.29-2.04-2.55-1.36-4.62-3.46-6.21-6.31Zm-2.57-26.99c-5.19,.67-9.3,2.28-12.33,4.83-3.03,2.55-4.55,5.61-4.55,9.16,0,2.47,.69,4.48,2.07,6.03,1.38,1.55,3.14,2.32,5.27,2.32,3.01,0,5.36-1.24,7.03-3.73,1.67-2.49,2.51-6.04,2.51-10.64v-7.97Z"/>
      <path class="cls-3" d="M2625.14,503.33v-96.41h17.89v96.41h-17.89Z"/>
    </g>
  </g>
</svg>