<?xml version="1.0" encoding="UTF-8"?>
<svg id="Capa_2" data-name="Capa 2" xmlns="http://www.w3.org/2000/svg" viewBox="0 0 808.17 566.06">
  <defs>
    <style>
      .cls-1, .cls-2 {
        fill: #01216c;
      }

      .cls-3, .cls-4 {
        fill: #05a904;
      }

      .cls-4, .cls-5, .cls-6, .cls-2 {
        fill-rule: evenodd;
      }

      .cls-5 {
        fill: #f0bb32;
      }

      .cls-6 {
        fill: #fb9e03;
      }
    </style>
  </defs>
  <g id="Capa_1-2" data-name="Capa 1">
    <g>
      <g>
        <path class="cls-5" d="M469.69,185.21c24.97-10.36,48.9-22.67,72.3-35.62-2.37-2.46-4.6-4.79-7.1-7.12,13.93-7.51,26.82-15.41,38.38-23.31l14.72,.65c15.77-11.14,28.66-23.31,41.93-36.52l-12.75-.13c6.57-6.86,11.96-13.6,15.9-20.07l13.93-3.24c5.13-8.55,8.54-17.48,10.12-27.07-5.52,1.42-11.04,2.85-16.56,4.27-.39-2.72-1.05-5.18-2.23-7.51-3.42-6.86-10.25-12.04-19.98-15.54,3.94,2.59,6.84,5.7,8.68,9.45,1.31,2.72,1.97,5.83,2.1,9.07v.13c0,.39,0,.78-.13,1.3-.66,19.17-23.4,44.81-59.94,69.68-.39,.26-.79,.65-1.31,.91-15.12,10.23-32.73,20.46-52.05,29.92l-.39,.26c-3.81,1.81-7.76,3.76-11.7,5.57h-.13c-5.78,2.72-11.7,5.31-17.61,7.77-65.33,27.46-127.77,38.99-164.05,32.9-.92-.26-1.97-.39-2.89-.65h0l2.89,.65c-.92-.26-1.97-.39-2.89-.65v28.24c8.28-.13,17.35-.78,26.95-1.94l-13.01,18.52c24.58-3.37,48.24-8.94,71.64-16.19l10.51-16.97c15.51-4.53,31.55-9.97,47.98-16.19,2.24,3.11,4.47,6.35,6.7,9.45h0Zm-150.77-76.93v-13.34c7.36-4.79,14.85-9.33,22.48-13.99l7.76,.13c13.01-7.51,27.08-14.89,41.93-21.89-29.71,15.67-54.55,32.77-72.16,49.09h0Zm0,72.01c-1.05-.13-2.1-.39-3.02-.65-11.83-2.98-20.11-8.16-23.79-15.67-6.97-14.38,3.81-34.45,26.82-55.69v-13.34c-6.44,4.14-12.62,8.42-18.8,12.82,2.63,.13,5.39,.26,8.02,.26-8.15,6.09-15.38,12.04-21.82,18l-12.49,3.24c-9.46,8.68-17.75,18-25.5,27.85l14.33-3.37c-1.45,2.2-2.5,4.4-3.55,6.48-1.58,2.98-2.89,6.22-3.81,9.32-5.92,2.59-11.83,5.18-17.88,7.77-2.89,8.16-3.81,15.67-1.18,24.09l22.61-9.97c2.76,3.37,5.78,5.83,9.6,7.9,1.05,.52,2.1,1.17,3.29,1.68l-22.74,15.54c10.65,6.48,22.87,8.94,35.62,10.1,8.68-6.09,17.35-12.17,26.03-18.13,2.63,.13,5.39,.13,8.28,0v-28.24c-1.05-.13-2.1-.39-3.02-.65l3.02,.65h0Z"/>
        <path class="cls-6" d="M640.57,37.04c-.39-2.72-1.05-5.18-2.23-7.51-3.42-6.86-10.25-12.04-19.98-15.54,3.94,2.59,6.84,5.7,8.68,9.45,1.31,2.72,1.97,5.83,2.1,9.07v.13c0,.39,0,.78-.13,1.3-.66,19.17-23.4,44.81-59.94,69.68-.39,.26-.79,.65-1.31,.91-15.12,10.23-32.73,20.46-52.05,29.92l-.39,.26c-3.81,1.81-7.76,3.76-11.7,5.57h-.13c-5.78,2.72-11.7,5.31-17.61,7.77-65.33,27.46-127.77,38.99-164.05,32.9-.92-.26-1.97-.39-2.89-.65-1.05-.13-2.1-.39-3.02-.65-11.83-2.98-20.11-8.16-23.79-15.67-6.97-14.38,3.81-34.45,26.82-55.69,17.61-16.32,42.46-33.42,72.16-49.09-14.85,6.99-28.92,14.38-41.93,21.89l-7.76-.13c-7.62,4.66-15.12,9.2-22.48,13.99-6.44,4.14-12.62,8.42-18.8,12.82,2.63,.13,5.39,.26,8.02,.26-8.15,6.09-15.38,12.04-21.82,18l-12.49,3.24c-9.46,8.68-17.75,18-25.5,27.85l14.33-3.37c-1.45,2.2-2.5,4.4-3.55,6.48-1.58,2.98-2.89,6.22-3.81,9.32-5.92,2.59-11.83,5.18-17.88,7.77-2.89,8.16-3.81,15.67-1.18,24.09l22.61-9.97c2.76,3.37,5.78,5.83,9.6,7.9,1.05,.52,2.1,1.17,3.29,1.68l-22.74,15.54c10.65,6.48,22.87,8.94,35.62,10.1,8.68-6.09,17.35-12.17,26.03-18.13,2.63,.13,5.39,.13,8.28,0,8.28-.13,17.35-.78,26.95-1.94l-13.01,18.52c24.58-3.37,48.24-8.94,71.64-16.19l10.51-16.97c15.51-4.53,31.55-9.97,47.98-16.19,2.24,3.11,4.47,6.35,6.7,9.45,24.97-10.36,48.9-22.67,72.3-35.62-2.37-2.46-4.6-4.79-7.1-7.12,13.93-7.51,26.82-15.41,38.38-23.31l14.72,.65c15.77-11.14,28.66-23.31,41.93-36.52l-12.75-.13c6.57-6.86,11.96-13.6,15.91-20.07l13.93-3.24c5.13-8.55,8.54-17.48,10.12-27.07-5.52,1.42-11.04,2.85-16.56,4.27Z"/>
        <path class="cls-2" d="M359.14,61.52C198.91,130.94,89.54,230.93,114.65,284.81c25.11,53.75,175.48,41.06,335.46-28.49,160.1-69.42,269.6-169.41,244.5-223.16-9.73-20.85-38.38-31.73-79-33.16,26.03,2.46,44.17,10.49,51,24.61,20.51,42.09-68.62,121.75-198.88,177.83-130.13,56.08-252.25,67.48-272.76,25.26-20.51-42.09,68.62-121.75,198.88-177.83,25.63-11.14,51-20.46,75.32-27.98-35.1,9.97-72.3,23.18-110.02,39.63h0Z"/>
        <polygon class="cls-4" points="430.72 45.85 431.9 46.49 432.56 46.36 433.09 46.11 433.87 45.98 434.53 45.2 435.19 44.42 435.98 43.64 436.5 42.87 437.03 43.13 437.55 43.39 438.21 43.64 438.74 44.03 439.53 44.03 440.71 43.77 441.63 43.77 442.55 43.64 443.21 43.77 443.73 44.03 444.26 44.16 444.78 44.16 445.7 44.81 446.36 45.33 447.15 45.98 448.07 46.62 448.6 46.88 449.12 47.01 449.65 47.14 450.3 47.4 450.7 47.79 451.23 48.18 451.75 48.57 452.28 49.08 453.2 49.08 453.98 49.08 454.77 48.96 455.69 48.96 456.35 48.83 457.01 48.57 457.93 48.44 458.59 48.31 459.37 48.05 460.43 47.79 461.21 47.53 462.14 47.14 462.92 47.79 463.71 48.44 464.5 49.21 465.29 49.99 465.95 50.64 466.47 51.55 467 52.19 467.79 52.97 468.31 53.62 468.97 54.14 469.63 54.52 470.29 55.17 470.81 54.91 471.47 54.65 472.26 54.39 472.91 54.27 473.44 54.14 473.97 54.01 474.62 53.88 475.15 53.75 476.2 53.1 477.52 52.71 478.57 52.32 479.75 51.8 480.54 51.67 481.2 51.42 481.98 51.29 482.77 50.9 483.3 51.29 483.95 51.55 484.61 51.8 485.27 52.06 485.53 52.84 485.8 53.62 486.06 54.39 486.32 55.17 486.32 56.21 486.58 57.12 486.58 58.02 486.58 59.19 487.11 59.83 487.5 60.74 487.9 61.39 488.29 62.17 488.95 63.2 489.48 64.11 490 64.89 490.53 65.92 491.05 66.31 491.84 66.83 492.37 67.22 493.03 67.61 493.55 67.87 494.34 67.99 495 67.99 495.52 68.12 496.71 67.61 497.89 67.22 499.07 66.7 500.12 66.31 501.44 65.92 502.62 65.66 503.94 65.15 505.12 64.89 506.04 64.89 506.96 65.02 507.88 65.15 508.93 65.4 509.85 65.02 510.77 64.76 511.69 64.37 512.61 64.11 513.14 63.85 513.53 63.59 514.06 63.2 514.58 62.81 514.71 63.59 514.98 64.24 515.11 64.89 515.5 65.66 516.03 65.15 516.55 64.89 517.08 64.63 517.61 64.37 518.13 64.63 518.53 64.89 518.92 65.15 519.32 65.53 518.66 66.18 518.13 66.83 517.47 67.61 516.95 68.38 516.82 68.9 516.69 69.42 516.55 70.2 516.55 70.71 515.9 70.84 514.98 70.97 514.32 71.1 513.66 71.23 512.74 71.23 512.09 71.23 511.43 71.36 510.77 71.36 509.85 71.49 509.06 71.75 508.27 72.01 507.35 72.27 506.17 72.01 504.99 71.88 503.8 71.62 502.62 71.36 501.83 71.36 501.18 71.36 500.39 71.36 499.73 71.36 499.47 71.62 499.2 72.01 498.94 72.4 498.68 72.92 498.94 73.3 499.07 73.69 499.34 74.21 499.6 74.6 500.12 74.73 500.78 75.25 501.44 75.51 502.1 75.77 502.49 75.77 503.02 75.77 503.54 75.77 504.07 75.77 504.59 75.51 505.12 75.25 505.64 74.99 506.3 74.47 506.83 74.73 507.22 75.12 507.75 75.38 508.27 75.64 509.32 76.03 510.24 76.54 511.3 76.93 512.35 77.58 513.27 77.58 513.93 77.71 514.71 77.84 515.63 77.97 516.03 77.84 516.55 77.84 517.08 77.71 517.47 77.71 518.13 77.45 518.53 77.06 519.05 76.93 519.45 76.67 520.5 77.45 521.42 77.97 522.34 78.62 523.39 79.13 524.05 78.62 524.7 78.1 525.63 77.58 526.28 76.93 527.2 77.06 528.12 77.32 528.91 77.32 529.7 77.58 530.49 77.58 531.01 77.71 531.54 77.84 532.07 77.97 533.12 78.49 534.04 79.13 535.22 79.78 536.14 80.43 537.32 80.82 538.24 81.34 539.16 81.72 540.35 82.24 541 83.28 541.79 84.18 542.58 85.35 543.37 86.26 543.76 86.26 544.29 86.13 544.82 86.13 545.34 86 546.39 86.64 547.45 87.29 548.37 87.94 549.55 88.59 550.07 88.98 550.6 89.49 551.26 89.88 552.05 90.27 552.57 90.4 553.1 90.53 553.62 90.66 554.28 90.79 554.41 91.7 554.67 92.47 554.81 93.25 555.07 94.16 554.41 95.45 553.62 96.75 552.97 98.04 552.31 99.34 551.91 99.86 551.52 100.5 551.13 101.15 550.86 101.67 550.47 102.06 550.21 102.45 549.81 102.83 549.55 103.22 549.55 104 549.68 104.65 549.68 105.43 549.68 106.33 549.42 106.59 548.89 106.85 548.63 107.11 548.37 107.5 547.18 107.24 545.87 107.11 544.82 106.85 543.5 106.72 542.98 106.46 542.45 106.07 541.79 105.68 541.27 105.55 541.27 106.07 541.27 106.59 541.27 107.11 541.27 107.5 541.66 108.27 542.19 108.79 542.58 109.44 543.11 109.96 542.98 110.74 542.84 111.38 542.71 111.9 542.71 112.55 541.79 113.07 541.14 113.46 540.48 113.84 539.69 114.23 538.9 113.97 538.24 113.71 537.59 113.59 536.8 113.46 536.14 111.9 535.61 110.48 535.09 109.05 534.43 107.63 533.91 107.37 533.38 107.11 532.72 106.72 532.2 106.59 531.28 106.33 530.49 106.2 529.57 105.94 528.65 105.68 527.33 106.07 526.28 106.46 524.97 106.85 523.78 107.24 521.81 106.98 519.84 106.72 518 106.59 516.03 106.33 515.11 106.59 514.45 106.85 513.66 107.11 512.74 107.5 511.82 107.5 510.9 107.5 509.85 107.5 508.93 107.63 508.27 107.76 507.35 108.02 506.7 108.4 506.04 108.53 504.99 108.02 504.2 107.76 503.28 107.37 502.49 107.11 501.7 107.63 500.65 108.4 499.86 108.92 499.07 109.57 498.15 109.05 497.23 108.4 496.31 107.63 495.39 107.11 494.74 107.11 494.08 107.11 493.29 106.98 492.76 106.98 492.11 107.37 491.19 107.76 490.53 108.02 489.87 108.53 488.95 108.66 487.9 108.79 487.11 108.92 486.19 109.05 485.53 109.05 484.88 109.05 484.22 109.05 483.56 109.05 482.64 110.74 481.72 112.29 480.67 114.1 479.88 115.79 479.09 116.43 478.43 117.08 477.78 117.6 477.12 118.38 476.2 118.38 475.28 118.51 474.49 118.51 473.44 118.51 472.52 118.38 471.6 118.25 470.68 117.99 469.76 117.86 468.84 118.51 468.05 119.16 467 119.8 466.34 120.58 465.42 120.71 464.37 120.84 463.45 120.97 462.53 121.1 461.87 119.93 461.35 119.03 460.82 117.99 460.43 116.95 460.16 116.18 460.16 115.14 460.03 114.23 459.77 113.46 459.24 112.68 458.85 112.16 458.46 111.51 458.06 110.99 457.53 111.25 456.75 111.51 456.22 111.9 455.69 112.16 455.17 112.68 454.64 113.33 454.12 113.84 453.59 114.49 452.8 114.62 451.88 114.88 450.96 115.01 450.04 115.4 448.73 116.43 447.41 117.47 446.1 118.64 444.65 119.67 443.86 119.16 443.07 118.51 442.02 117.99 441.23 117.21 440.71 117.47 440.05 117.6 439.53 117.99 439 118.25 439 118.9 438.87 119.67 438.87 120.45 438.87 121.23 439.13 121.75 439.53 122.26 439.92 123.04 440.32 123.56 439 126.02 437.55 128.61 436.24 131.07 434.93 133.66 433.87 135.34 432.69 136.9 431.77 138.45 430.72 140.14 430.06 140.53 429.4 140.78 428.88 141.04 428.09 141.3 427.83 143.12 427.43 144.8 427.17 146.61 426.91 148.3 426.38 148.3 425.72 148.43 425.2 148.43 424.67 148.56 423.88 147.26 422.96 145.96 422.17 144.8 421.25 143.37 419.94 143.24 418.49 143.12 417.18 142.99 415.73 142.86 416 141.82 416.39 140.53 416.78 139.49 417.05 138.32 416.65 137.42 416.13 136.38 415.73 135.47 415.47 134.57 414.68 133.92 413.63 133.27 412.84 132.75 412.05 132.11 412.05 130.94 412.18 129.91 412.18 128.87 412.18 127.83 411.92 126.93 411.4 126.28 411 125.5 410.74 124.72 411.26 124.21 411.92 123.82 412.45 123.3 412.97 122.91 413.24 122 413.37 121.36 413.63 120.58 413.76 119.8 412.18 118.51 410.34 117.08 408.64 115.66 406.8 114.23 406.27 114.1 405.74 114.1 405.22 113.97 404.69 113.84 404.69 113.2 404.69 112.42 404.82 111.77 404.82 111.25 403.77 110.35 402.85 109.57 401.93 108.79 401.01 107.89 401.41 107.5 401.8 106.98 402.33 106.59 402.72 106.2 403.77 106.2 404.95 106.2 405.88 106.33 406.8 106.33 407.98 105.17 408.9 104.13 409.95 103.09 410.87 102.06 411.26 101.28 411.79 100.24 412.05 99.47 412.45 98.43 412.05 97.52 411.79 96.62 411.26 95.71 410.87 94.8 410.61 93.77 410.34 92.99 410.08 92.21 409.82 91.31 408.77 91.18 407.85 91.05 406.8 90.92 405.88 90.92 406.14 90.27 406.27 89.75 406.4 89.24 406.53 88.59 407.85 87.81 408.9 87.03 410.21 86.13 411.26 85.48 411.92 84.7 412.45 83.8 413.11 83.02 413.63 82.24 413.63 81.47 413.76 80.69 413.76 80.04 413.76 79.13 413.11 78.49 412.32 77.84 411.4 77.06 410.61 76.41 409.82 75.77 408.9 75.25 408.11 74.47 407.32 73.95 407.58 73.56 407.98 73.18 408.24 72.79 408.5 72.27 409.16 71.62 409.95 70.97 410.61 70.2 411.26 69.42 411 68.64 410.74 67.87 410.48 66.83 410.21 66.05 409.69 65.15 409.03 64.37 408.5 63.59 407.98 62.68 407.72 61.78 407.45 61 407.19 60.09 406.8 59.32 407.45 58.41 407.85 57.24 408.37 56.34 408.9 55.3 408.24 54.65 407.58 54.01 406.8 53.23 406.14 52.58 406.8 51.93 407.45 51.42 408.11 50.64 408.77 49.99 409.42 49.6 409.95 49.21 410.61 48.83 411.13 48.44 411.13 47.92 411.13 47.27 411.13 46.75 414.55 45.07 416.92 45.85 418.49 46.49 423.09 48.18 427.7 48.44 429.54 46.75 430.72 45.85 430.72 45.85"/>
        <g>
          <path class="cls-2" d="M802.39,363.43c-3.94-6.48-9.6-11.53-16.96-15.28-4.86-2.46-10.78-4.14-18.01-5.18-4.21-.65-9.73-1.04-16.56-1.29-4.6-.13-9.86-.26-15.64-.26h-41.14v144.41h36.15v-53.75h4.99c5.78,0,11.04-.13,15.64-.26,6.44-.26,11.83-.78,16.17-1.3,7.36-1.17,13.54-2.85,18.4-5.18,7.36-3.63,13.01-8.81,16.96-15.41,3.81-6.73,5.78-14.38,5.78-23.31s-1.97-16.58-5.78-23.18Zm-37.46,39.63c-3.02,1.94-7.62,3.37-14.07,4.02-3.02,.26-6.57,.52-10.52,.52h-10.12v-41.71h10.12c3.94,0,7.49,.13,10.52,.52,6.44,.65,11.17,1.94,14.07,4.02,4.47,2.98,6.7,8.55,6.7,16.45s-2.23,13.08-6.7,16.19Z"/>
          <polygon class="cls-2" points="429.07 369.26 470.35 369.26 470.35 485.83 506.5 485.83 506.5 369.26 547.77 369.26 547.77 341.41 429.07 341.41 429.07 369.26"/>
          <polygon class="cls-2" points="599.56 423.01 649.91 423.01 649.91 395.16 599.56 395.16 599.56 369.26 677.64 369.26 677.64 341.41 563.28 341.41 563.28 485.83 678.04 485.83 678.04 457.85 599.56 457.85 599.56 423.01"/>
          <rect class="cls-1" x=".42" y="341.67" width="36.54" height="144.16"/>
          <path class="cls-2" d="M412.12,368.48c-.28-.84-.58-1.67-.91-2.48-.33-.81-.67-1.61-1.04-2.4-2.23-4.71-5.31-8.91-9.35-12.6-4.73-4.27-10.78-7.64-17.75-9.97-6.97-2.07-14.72-3.24-23.27-3.24s-16.3,1.17-23.27,3.24c-6.83,2.33-12.75,5.7-17.61,9.97-3.29,3.08-6.01,6.51-8.1,10.29-1.26,2.27-2.28,4.67-3.07,7.19-.28,.84-.54,1.75-.78,2.72-1.7,6.8-2.5,16.74-2.5,29.66v25.52c0,14.76,1.05,25.51,3.29,32.38,1.58,5.05,4.12,9.59,7.5,13.57,1.13,1.33,2.35,2.59,3.67,3.79,3.65,3.3,7.89,6.02,12.66,8.11,1.59,.69,3.24,1.32,4.95,1.87,5.23,1.75,10.89,2.84,17.01,3.28,2.04,.15,4.12,.22,6.26,.22s4.22-.07,6.26-.22c2.37-.17,4.65-.47,6.88-.83,3.53-.58,6.92-1.37,10.12-2.45,1.74-.55,3.43-1.17,5.05-1.87s3.18-1.46,4.66-2.29c2.97-1.67,5.67-3.61,8.03-5.81,1.35-1.2,2.59-2.46,3.73-3.79,1.48-1.72,2.77-3.56,3.91-5.49,.61-1.04,1.2-2.1,1.72-3.2,.51-1.07,.95-2.18,1.38-3.3,.2-.52,.4-1.04,.58-1.58,.5-1.53,.93-3.29,1.31-5.21,1.33-6.69,1.97-15.7,1.97-27.17v-25.52c0-11.07-.59-19.96-1.83-26.56-.41-2.2-.9-4.14-1.46-5.82Zm-52.32,93c-3.55,0-6.54-.49-8.99-1.43-1.84-.7-3.37-1.66-4.6-2.86-.41-.4-.79-.83-1.13-1.28-.66-.94-1.24-2.15-1.75-3.62-.51-1.48-.93-3.22-1.28-5.24-.69-4.03-1.05-9.15-1.05-15.36v-36.39c0-6,.34-10.95,.99-14.91,.69-4.25,1.73-7.37,3.09-9.31,2.76-3.63,7.63-5.57,14.72-5.57s11.96,1.94,14.72,5.57c2.63,3.76,4.07,11.79,4.07,24.22v36.39c0,3.11-.09,5.94-.27,8.5-.53,7.68-1.84,12.9-3.81,15.72-.34,.45-.72,.88-1.13,1.28-.57,.55-1.22,1.04-1.92,1.49-.81,.53-1.69,1-2.68,1.38-2.45,.94-5.44,1.43-8.99,1.43Z"/>
          <polygon class="cls-2" points="138.83 425.21 89.28 341.41 52.47 341.41 52.73 486.09 85.86 486.09 85.73 389.34 142.65 485.83 172.22 485.83 172.22 341.41 138.83 341.41 138.83 425.21"/>
          <polygon class="cls-2" points="186.02 485.83 222.17 485.83 222.17 423.01 270.15 423.01 270.15 395.16 222.17 395.16 222.17 370.94 292.89 370.94 292.89 341.41 186.02 341.41 186.02 485.83"/>
        </g>
      </g>
      <g>
        <path class="cls-3" d="M0,535.9c0-5.03,.33-8.69,.98-11,.66-2.31,1.78-4.28,3.38-5.92,1.46-1.49,3.23-2.62,5.31-3.39,2.08-.78,4.4-1.16,6.98-1.16,4.72,0,8.64,1.32,11.77,3.97,3.13,2.65,4.69,5.89,4.69,9.74v2.95h-10.79c-.09-2.51-.58-4.34-1.48-5.48-.9-1.14-2.3-1.71-4.2-1.71-2.12,0-3.59,.57-4.41,1.72-.82,1.15-1.23,3.95-1.23,8.41v12.36c0,4.26,.4,7.02,1.21,8.26,.81,1.25,2.28,1.87,4.43,1.87,2.01,0,3.45-.61,4.33-1.82,.87-1.21,1.31-3.23,1.31-6.05v-.72h10.82v3.28c0,4.42-1.51,8-4.54,10.74-3.03,2.74-7,4.11-11.92,4.11-2.58,0-4.91-.39-6.98-1.16-2.08-.78-3.85-1.91-5.31-3.39-1.6-1.64-2.72-3.61-3.38-5.92-.66-2.31-.98-5.97-.98-11v-8.69Z"/>
        <path class="cls-3" d="M45.25,564.79v-49.08h33.12v9.48h-22.23v8.79h15.18v9.48h-15.18v11.87h23.64v9.48H45.25Z"/>
        <path class="cls-3" d="M89.97,515.7h12.36c4.39,0,7.66,.16,9.79,.48,2.13,.32,3.91,.85,5.33,1.59,2.23,1.18,3.93,2.84,5.1,4.97,1.17,2.13,1.75,4.62,1.75,7.46,0,3.3-.77,6.09-2.31,8.38-1.54,2.28-3.77,3.93-6.67,4.93l10.72,21.28h-12l-9.54-20h-3.64v20h-10.89v-49.08Zm10.89,8.33v12.89h3.02c3.8,0,6.34-.47,7.62-1.41,1.28-.94,1.92-2.62,1.92-5.05s-.64-4.08-1.92-5.02c-1.28-.94-3.82-1.41-7.62-1.41h-3.02Z"/>
        <path class="cls-3" d="M141.84,564.79v-39.61h-12.43v-9.48h35.71v9.48h-12.43v39.61h-10.85Z"/>
        <path class="cls-3" d="M168.07,564.79v-4.62h5.57v-40.17h-5.57v-4.29h22.1v4.29h-5.64v40.17h5.64v4.62h-22.1Z"/>
        <path class="cls-3" d="M197.52,564.79v-49.08h32.17v9.48h-21.28v8.79h14.43v9.48h-14.43v21.34h-10.89Z"/>
        <path class="cls-3" d="M231.94,564.79v-4.62h5.57v-40.17h-5.57v-4.29h22.1v4.29h-5.64v40.17h5.64v4.62h-22.1Z"/>
        <path class="cls-3" d="M261.78,535.9c0-5.03,.33-8.69,.98-11,.66-2.31,1.78-4.28,3.38-5.92,1.46-1.49,3.23-2.62,5.31-3.39,2.08-.78,4.4-1.16,6.98-1.16,4.72,0,8.64,1.32,11.77,3.97,3.13,2.65,4.69,5.89,4.69,9.74v2.95h-10.79c-.09-2.51-.58-4.34-1.48-5.48-.9-1.14-2.3-1.71-4.2-1.71-2.12,0-3.59,.57-4.41,1.72-.82,1.15-1.23,3.95-1.23,8.41v12.36c0,4.26,.4,7.02,1.21,8.26,.81,1.25,2.28,1.87,4.43,1.87,2.01,0,3.45-.61,4.33-1.82,.87-1.21,1.31-3.23,1.31-6.05v-.72h10.82v3.28c0,4.42-1.51,8-4.54,10.74-3.03,2.74-7,4.11-11.92,4.11-2.58,0-4.91-.39-6.98-1.16-2.08-.78-3.85-1.91-5.31-3.39-1.6-1.64-2.72-3.61-3.38-5.92-.66-2.31-.98-5.97-.98-11v-8.69Z"/>
        <path class="cls-3" d="M333.1,564.79l-2.62-9.8h-14.75l-2.56,9.8h-10.56l14.1-49.08h12.85l14.1,49.08h-10.56Zm-15.25-18.2h10.56l-5.25-22.17-5.31,22.17Z"/>
        <path class="cls-3" d="M351.23,535.9c0-5.03,.33-8.69,.98-11,.66-2.31,1.78-4.28,3.38-5.92,1.46-1.49,3.23-2.62,5.31-3.39,2.08-.78,4.4-1.16,6.98-1.16,4.72,0,8.64,1.32,11.77,3.97,3.13,2.65,4.69,5.89,4.69,9.74v2.95h-10.79c-.09-2.51-.58-4.34-1.48-5.48-.9-1.14-2.3-1.71-4.2-1.71-2.12,0-3.59,.57-4.41,1.72-.82,1.15-1.23,3.95-1.23,8.41v12.36c0,4.26,.4,7.02,1.21,8.26,.81,1.25,2.28,1.87,4.43,1.87,2.01,0,3.45-.61,4.33-1.82,.87-1.21,1.31-3.23,1.31-6.05v-.72h10.82v3.28c0,4.42-1.51,8-4.54,10.74-3.03,2.74-7,4.11-11.92,4.11-2.58,0-4.91-.39-6.98-1.16-2.08-.78-3.85-1.91-5.31-3.39-1.6-1.64-2.72-3.61-3.38-5.92-.66-2.31-.98-5.97-.98-11v-8.69Z"/>
        <path class="cls-3" d="M392.25,564.79v-4.62h5.57v-40.17h-5.57v-4.29h22.1v4.29h-5.64v40.17h5.64v4.62h-22.1Z"/>
        <path class="cls-3" d="M422.08,535.9c0-5.03,.33-8.69,.98-11,.66-2.31,1.78-4.28,3.38-5.92,1.46-1.49,3.23-2.62,5.31-3.39,2.08-.78,4.4-1.16,6.98-1.16s4.92,.39,7.02,1.16c2.1,.78,3.88,1.91,5.34,3.39,1.6,1.64,2.72,3.61,3.38,5.92,.66,2.31,.98,5.97,.98,11v8.69c0,5.03-.33,8.69-.98,11-.66,2.31-1.78,4.28-3.38,5.92-1.46,1.49-3.25,2.62-5.34,3.39-2.1,.78-4.44,1.16-7.02,1.16s-4.91-.39-6.98-1.16c-2.08-.78-3.85-1.91-5.31-3.39-1.6-1.64-2.72-3.61-3.38-5.92-.66-2.31-.98-5.97-.98-11v-8.69Zm26.72-37.25l-10.66,12.13h-5.05l6.3-12.13h9.41Zm-4.43,47.74v-12.36c0-4.22-.4-6.96-1.21-8.23-.81-1.27-2.28-1.9-4.43-1.9s-3.62,.63-4.43,1.9c-.81,1.27-1.21,4.01-1.21,8.23v12.36c0,4.22,.4,6.96,1.21,8.23,.81,1.27,2.28,1.9,4.43,1.9s3.62-.63,4.43-1.9c.81-1.27,1.21-4.01,1.21-8.23Z"/>
        <path class="cls-3" d="M467.69,564.79v-49.08h10.46l15.71,29.8-.2-29.8h9.48v49.08h-8.92l-17.28-33.18,.2,33.18h-9.44Z"/>
        <path class="cls-3" d="M530.32,564.79v-4.62h5.57v-40.17h-5.57v-4.29h22.1v4.29h-5.64v40.17h5.64v4.62h-22.1Z"/>
        <path class="cls-3" d="M557.27,556.13l8.46-5.97c1.46,2.41,2.95,4.13,4.44,5.18,1.5,1.05,3.2,1.57,5.1,1.57s3.32-.48,4.46-1.44c1.14-.96,1.7-2.2,1.7-3.71,0-1.36-.44-2.54-1.33-3.56s-2.26-1.92-4.11-2.71c-.63-.26-1.56-.63-2.79-1.12-4.59-1.86-7.71-3.43-9.34-4.72-1.79-1.4-3.15-3.03-4.07-4.9s-1.38-3.91-1.38-6.12c0-4.35,1.48-7.84,4.43-10.48,2.95-2.63,6.86-3.95,11.74-3.95,3.5,0,6.6,.75,9.31,2.25,2.71,1.5,4.96,3.7,6.75,6.61l-7.8,5.57c-1.27-1.79-2.63-3.12-4.08-4-1.45-.87-3.04-1.31-4.77-1.31s-2.92,.38-3.85,1.15c-.93,.77-1.39,1.81-1.39,3.15,0,1.25,.45,2.35,1.36,3.31,.91,.96,2.36,1.88,4.34,2.75,.81,.35,1.99,.84,3.54,1.48,4.35,1.77,7.27,3.25,8.75,4.43,1.68,1.33,2.97,2.97,3.85,4.92s1.33,4.09,1.33,6.43c0,4.5-1.56,8.15-4.67,10.94-3.11,2.79-7.2,4.18-12.25,4.18-3.85,0-7.25-.83-10.21-2.49-2.96-1.66-5.47-4.14-7.52-7.44Z"/>
        <path class="cls-3" d="M601.17,535.9c0-5.03,.33-8.69,.98-11,.66-2.31,1.78-4.28,3.38-5.92,1.46-1.49,3.23-2.62,5.31-3.39,2.08-.78,4.4-1.16,6.98-1.16s4.92,.39,7.02,1.16c2.1,.78,3.88,1.91,5.34,3.39,1.6,1.64,2.72,3.61,3.38,5.92,.66,2.31,.98,5.97,.98,11v8.69c0,5.03-.33,8.69-.98,11-.66,2.31-1.78,4.28-3.38,5.92-1.46,1.49-3.25,2.62-5.34,3.39-2.1,.78-4.44,1.16-7.02,1.16s-4.91-.39-6.98-1.16c-2.08-.78-3.85-1.91-5.31-3.39-1.6-1.64-2.72-3.61-3.38-5.92-.66-2.31-.98-5.97-.98-11v-8.69Zm22.3,10.49v-12.36c0-4.22-.4-6.96-1.21-8.23-.81-1.27-2.28-1.9-4.43-1.9s-3.62,.63-4.43,1.9c-.81,1.27-1.21,4.01-1.21,8.23v12.36c0,4.22,.4,6.96,1.21,8.23,.81,1.27,2.28,1.9,4.43,1.9s3.62-.63,4.43-1.9c.81-1.27,1.21-4.01,1.21-8.23Z"/>
        <path class="cls-3" d="M682.95,544.36c-1.42,.72-2.81,1.26-4.18,1.62-1.37,.36-2.71,.54-4.02,.54-4.15,0-7.5-1.45-10.03-4.36-2.54-2.91-3.8-6.75-3.8-11.54s1.48-8.79,4.43-11.75,6.83-4.44,11.64-4.44c5.05,0,9.03,1.72,11.95,5.16,2.92,3.44,4.38,8.17,4.38,14.18,0,5.12-.96,10.37-2.87,15.75-1.91,5.39-4.69,10.67-8.34,15.85h-12.79c2.62-2.49,5.06-5.47,7.31-8.93,2.25-3.46,4.36-7.49,6.33-12.08Zm-5.97-22.13c-1.86,0-3.34,.75-4.44,2.26-1.1,1.51-1.66,3.55-1.66,6.13s.55,4.63,1.66,6.16c1.1,1.53,2.58,2.29,4.44,2.29s3.34-.76,4.44-2.29c1.1-1.53,1.66-3.58,1.66-6.16s-.55-4.62-1.66-6.13c-1.1-1.51-2.58-2.26-4.44-2.26Z"/>
        <path class="cls-3" d="M699.01,540.2c0-8.59,1.33-15.03,3.98-19.33,2.66-4.29,6.63-6.44,11.92-6.44s9.3,2.15,11.95,6.44c2.66,4.29,3.98,10.74,3.98,19.33s-1.33,15.08-3.98,19.39c-2.66,4.32-6.64,6.48-11.95,6.48s-9.26-2.16-11.92-6.48c-2.66-4.32-3.98-10.78-3.98-19.39Zm10.33-4.3v8.69c0,4.7,.44,8.08,1.31,10.13,.87,2.06,2.3,3.08,4.26,3.08s3.38-1.02,4.23-3.07c.85-2.04,1.28-5.43,1.28-10.15v-8.69c0-4.72-.43-8.1-1.28-10.15s-2.26-3.07-4.23-3.07-3.39,1.03-4.26,3.08c-.87,2.05-1.31,5.43-1.31,10.13Z"/>
        <path class="cls-3" d="M736.36,540.2c0-8.59,1.33-15.03,3.98-19.33,2.66-4.29,6.63-6.44,11.92-6.44s9.3,2.15,11.95,6.44c2.66,4.29,3.98,10.74,3.98,19.33s-1.33,15.08-3.98,19.39c-2.66,4.32-6.64,6.48-11.95,6.48s-9.26-2.16-11.92-6.48c-2.66-4.32-3.98-10.78-3.98-19.39Zm10.33-4.3v8.69c0,4.7,.44,8.08,1.31,10.13,.87,2.06,2.3,3.08,4.26,3.08s3.38-1.02,4.23-3.07c.85-2.04,1.28-5.43,1.28-10.15v-8.69c0-4.72-.43-8.1-1.28-10.15s-2.26-3.07-4.23-3.07-3.39,1.03-4.26,3.08c-.87,2.05-1.31,5.43-1.31,10.13Z"/>
        <path class="cls-3" d="M776.26,564.79v-8.07h9.31v-32.95h-10v-8.07h19.97v41.02h9.31v8.07h-28.59Z"/>
      </g>
    </g>
  </g>
</svg>